<svg width="55" height="52" viewBox="0 0 55 52" fill="none" xmlns="http://www.w3.org/2000/svg">
<path d="M25.2229 46.4361L25.2193 46.4328C18.0901 39.771 12.3704 34.4132 8.40391 29.4126C4.46695 24.4492 2.49995 20.1298 2.49995 15.5858C2.49995 8.1419 8.10293 2.5 15.125 2.5C19.1259 2.5 23.029 4.43261 25.579 7.49424L27.5 9.80063L29.4209 7.49424C31.9709 4.43261 35.874 2.5 39.875 2.5C46.897 2.5 52.5 8.1419 52.5 15.5858C52.5 20.1298 50.533 24.4492 46.596 29.4126C42.6295 34.4132 36.9098 39.771 29.7806 46.4328L29.777 46.4361L27.5 48.5722L25.2229 46.4361Z" fill="#F32A2A" stroke="#FFA2A2" stroke-width="5"/>
</svg>
