<svg width="64" height="64" viewBox="0 0 64 64" fill="none" xmlns="http://www.w3.org/2000/svg">
<rect x="1.5" y="1.5" width="61" height="61" rx="20.5" fill="#DC9DFA" stroke="#232931" stroke-width="3"/>
<path fill-rule="evenodd" clip-rule="evenodd" d="M42.1403 21.3967C42.1403 21.7671 41.9932 22.1224 41.7313 22.3843C41.4693 22.6462 41.1141 22.7934 40.7436 22.7934H18.3967C18.0263 22.7934 17.671 22.6462 17.4091 22.3843C17.1472 22.1224 17 21.7671 17 21.3967C17 21.0263 17.1472 20.671 17.4091 20.4091C17.671 20.1472 18.0263 20 18.3967 20H40.7436C41.1141 20 41.4693 20.1472 41.7313 20.4091C41.9932 20.671 42.1403 21.0263 42.1403 21.3967ZM38.4158 28.8457C38.4158 29.2161 38.2687 29.5713 38.0068 29.8333C37.7448 30.0952 37.3896 30.2424 37.0192 30.2424H18.3967C18.0263 30.2424 17.671 30.0952 17.4091 29.8333C17.1472 29.5713 17 29.2161 17 28.8457C17 28.4752 17.1472 28.12 17.4091 27.8581C17.671 27.5961 18.0263 27.449 18.3967 27.449H37.0192C37.3896 27.449 37.7448 27.5961 38.0068 27.8581C38.2687 28.12 38.4158 28.4752 38.4158 28.8457ZM30.9669 36.2947C30.9669 36.6651 30.8197 37.0203 30.5578 37.2823C30.2958 37.5442 29.9406 37.6913 29.5702 37.6913H18.3967C18.0263 37.6913 17.671 37.5442 17.4091 37.2823C17.1472 37.0203 17 36.6651 17 36.2947C17 35.9242 17.1472 35.569 17.4091 35.3071C17.671 35.0451 18.0263 34.898 18.3967 34.898H29.5702C29.9406 34.898 30.2958 35.0451 30.5578 35.3071C30.8197 35.569 30.9669 35.9242 30.9669 36.2947ZM29.1046 43.7436C29.1046 44.1141 28.9575 44.4693 28.6955 44.7313C28.4336 44.9932 28.0783 45.1403 27.7079 45.1403H18.3967C18.0263 45.1403 17.671 44.9932 17.4091 44.7313C17.1472 44.4693 17 44.1141 17 43.7436C17 43.3732 17.1472 43.018 17.4091 42.756C17.671 42.4941 18.0263 42.347 18.3967 42.347H27.7079C28.0783 42.347 28.4336 42.4941 28.6955 42.756C28.9575 43.018 29.1046 43.3732 29.1046 43.7436Z" fill="black"/>
<path d="M44.4681 23.7245C44.8385 23.7245 45.1938 23.8716 45.4557 24.1336C45.7177 24.3955 45.8648 24.7507 45.8648 25.1212C45.8648 26.7263 46.5025 28.2658 47.6375 29.4008C48.7725 30.5358 50.3119 31.1735 51.9171 31.1735C52.2875 31.1735 52.6428 31.3206 52.9047 31.5826C53.1666 31.8445 53.3138 32.1997 53.3138 32.5702C53.3138 32.9406 53.1666 33.2958 52.9047 33.5578C52.6428 33.8197 52.2875 33.9668 51.9171 33.9668C49.5763 33.9668 47.4477 33.0581 45.8648 31.572V40.9503C45.8642 42.2941 45.4164 43.5996 44.5919 44.6608C43.7674 45.7221 42.6132 46.4787 41.3112 46.8115C40.0092 47.1443 38.6334 47.0342 37.4009 46.4988C36.1683 45.9633 35.149 45.0328 34.5037 43.854C33.8583 42.6752 33.6237 41.3152 33.8367 39.9883C34.0498 38.6614 34.6983 37.4432 35.6802 36.5256C36.6621 35.6081 37.9215 35.0434 39.2597 34.9207C40.598 34.7979 41.939 35.1241 43.0714 35.8477V25.1212C43.0714 24.7507 43.2186 24.3955 43.4805 24.1336C43.7424 23.8716 44.0977 23.7245 44.4681 23.7245Z" fill="black"/>
</svg>
