<svg width="64" height="64" viewBox="0 0 64 64" fill="none" xmlns="http://www.w3.org/2000/svg">
<rect width="64" height="64" rx="32" fill="black"/>
<path d="M48.884 17.5562C48.8837 17.1587 48.7257 16.7776 48.4446 16.4965C48.1635 16.2154 47.7824 16.0574 47.3849 16.0572L39.384 16.0551C38.986 16.0551 38.6044 16.2131 38.323 16.4945C38.0416 16.7759 37.8835 17.1576 37.8835 17.5555C37.8835 17.9535 38.0416 18.3351 38.323 18.6165C38.6044 18.8979 38.986 19.056 39.384 19.056L43.7631 19.0567L35.6066 27.2132C35.3253 27.4945 35.1673 27.876 35.1673 28.2739C35.1673 28.6717 35.3253 29.0532 35.6066 29.3345C35.8879 29.6158 36.2695 29.7739 36.6673 29.7739C37.0651 29.7739 37.4466 29.6158 37.7279 29.3345L45.8844 21.178L45.8844 25.5565C45.8844 25.7535 45.9232 25.9486 45.9986 26.1307C46.074 26.3127 46.1846 26.4781 46.3239 26.6175C46.4632 26.7568 46.6286 26.8673 46.8107 26.9427C46.9927 27.0181 47.1878 27.0569 47.3849 27.0569C47.5819 27.0569 47.7771 27.0181 47.9591 26.9427C48.1412 26.8673 48.3066 26.7568 48.4459 26.6175C48.5852 26.4781 48.6958 26.3127 48.7712 26.1307C48.8466 25.9486 48.8854 25.7535 48.8854 25.5565L48.884 17.5562Z" fill="#97D8EC"/>
<path d="M16.0572 47.3849C16.0574 47.7824 16.2155 48.1635 16.4965 48.4446C16.7776 48.7257 17.1588 48.8837 17.5563 48.884L25.5572 48.8861C25.9551 48.8861 26.3368 48.728 26.6182 48.4466C26.8996 48.1652 27.0577 47.7835 27.0577 47.3856C27.0577 46.9876 26.8996 46.606 26.6182 46.3246C26.3368 46.0432 25.9551 45.8851 25.5572 45.8851L21.1781 45.8844L29.3345 37.7279C29.6158 37.4466 29.7739 37.0651 29.7739 36.6673C29.7739 36.2694 29.6158 35.8879 29.3345 35.6066C29.0532 35.3253 28.6717 35.1673 28.2739 35.1673C27.8761 35.1673 27.4945 35.3253 27.2132 35.6066L19.0567 43.7631L19.0567 39.3847C19.0567 39.1876 19.0179 38.9925 18.9425 38.8105C18.8671 38.6284 18.7566 38.463 18.6173 38.3237C18.4779 38.1843 18.3125 38.0738 18.1305 37.9984C17.9484 37.923 17.7533 37.8842 17.5563 37.8842C17.3592 37.8842 17.1641 37.923 16.9821 37.9984C16.8 38.0738 16.6346 38.1843 16.4953 38.3237C16.3559 38.463 16.2454 38.6284 16.17 38.8105C16.0946 38.9925 16.0558 39.1876 16.0558 39.3847L16.0572 47.3849Z" fill="#97D8EC"/>
</svg>
