<svg width="59" height="57" viewBox="0 0 59 57" fill="none" xmlns="http://www.w3.org/2000/svg">
<path d="M8.84998 12.1182C8.84998 9.26818 12.1422 7.57243 14.5936 9.15988L39.6657 25.4248C40.1663 25.7495 40.5769 26.1878 40.8615 26.7014C41.1461 27.215 41.296 27.7882 41.298 28.3707C41.3 28.9533 41.1542 29.5274 40.8732 30.0428C40.5922 30.5583 40.1847 30.9993 39.6863 31.3272L14.6113 47.8372C14.0572 48.2014 13.4108 48.4127 12.7416 48.4486C12.0724 48.4844 11.4058 48.3434 10.8134 48.0406C10.2209 47.7379 9.72511 47.2849 9.37918 46.7304C9.03324 46.1758 8.85029 45.5407 8.84998 44.8932V12.1182ZM50.15 9.97498C50.15 9.59705 49.9946 9.2346 49.718 8.96736C49.4413 8.70012 49.0662 8.54998 48.675 8.54998C48.2838 8.54998 47.9086 8.70012 47.632 8.96736C47.3554 9.2346 47.2 9.59705 47.2 9.97498V47.025C47.2 47.4029 47.3554 47.7654 47.632 48.0326C47.9086 48.2999 48.2838 48.45 48.675 48.45C49.0662 48.45 49.4413 48.2999 49.718 48.0326C49.9946 47.7654 50.15 47.4029 50.15 47.025V9.97498Z" fill="#97D8EC"/>
</svg>
