<svg width="64" height="67" viewBox="0 0 64 67" fill="none" xmlns="http://www.w3.org/2000/svg">
<g id="Open playlist">
<path id="Vector" d="M33.808 37.4124L33.8077 37.412C33.3975 36.9069 33.0678 36.3016 32.8416 35.6289C32.6155 34.9562 32.4983 34.2325 32.4983 33.5C32.4983 32.7674 32.6155 32.0438 32.8416 31.3711C33.0678 30.6984 33.3975 30.0931 33.8077 29.588L33.808 29.5876L56.1162 2.06579C56.5259 1.56038 57.0066 1.16642 57.5274 0.900288C58.0476 0.634457 58.6 0.499996 59.1542 0.499996C59.7085 0.499996 60.2609 0.634457 60.7811 0.90028C61.3019 1.16642 61.7825 1.56038 62.1922 2.06579C62.602 2.57136 62.9312 3.17682 63.1571 3.84956C63.3829 4.52224 63.4999 5.24578 63.4999 5.97817C63.4999 6.71056 63.3829 7.43409 63.1571 8.10677C62.9312 8.77951 62.602 9.38496 62.1922 9.89053L43.3348 33.1552L43.0799 33.4696L43.3344 33.7844L62.1918 57.109L62.1922 57.1095C62.602 57.615 62.9312 58.2205 63.1571 58.8932C63.3829 59.5659 63.4999 60.2894 63.4999 61.0218C63.4999 61.7542 63.3829 62.4778 63.1571 63.1504C62.9312 63.8232 62.602 64.4286 62.1922 64.9342L62.5707 65.2409L62.1922 64.9342C61.7825 65.4396 61.3019 65.8336 60.7811 66.0997C60.2609 66.3655 59.7085 66.5 59.1542 66.5C58.6 66.5 58.0476 66.3655 57.5274 66.0997L57.2999 66.5449L57.5274 66.0997C57.0066 65.8336 56.5259 65.4396 56.1162 64.9342L33.808 37.4124Z" fill="url(#paint0_linear_37_83)" fill-opacity="0.8" stroke="black"/>
<path id="Vector_2" d="M1.80975 37.4124L1.80944 37.412C1.39918 36.9069 1.06955 36.3016 0.843357 35.6289C0.617185 34.9562 0.5 34.2325 0.5 33.5C0.5 32.7674 0.617185 32.0438 0.843357 31.3711C1.06955 30.6984 1.39918 30.0931 1.80944 29.588L1.80975 29.5876L24.1179 2.06579C24.5276 1.56038 25.0083 1.16642 25.5291 0.900288C26.0493 0.634457 26.6017 0.499996 27.1559 0.499996C27.7102 0.499996 28.2626 0.634457 28.7828 0.90028C29.3036 1.16642 29.7843 1.56038 30.1939 2.06579C30.6037 2.57136 30.9329 3.17682 31.1588 3.84956C31.3846 4.52224 31.5016 5.24578 31.5016 5.97817C31.5016 6.71056 31.3846 7.43409 31.1588 8.10677C30.9329 8.77951 30.6037 9.38496 30.1939 9.89053L11.3365 33.1552L11.0816 33.4696L11.3361 33.7844L30.1935 57.109L30.1939 57.1095C30.6037 57.615 30.9329 58.2205 31.1588 58.8932C31.3846 59.5659 31.5016 60.2894 31.5016 61.0218C31.5016 61.7542 31.3846 62.4778 31.1588 63.1504C30.9329 63.8232 30.6037 64.4286 30.1939 64.9342L30.5724 65.2409L30.1939 64.9342C29.7843 65.4396 29.3036 65.8336 28.7828 66.0997C28.2626 66.3655 27.7102 66.5 27.1559 66.5C26.6017 66.5 26.0493 66.3655 25.5291 66.0997L25.3016 66.5449L25.5291 66.0997C25.0083 65.8336 24.5276 65.4396 24.1179 64.9342L1.80975 37.4124Z" fill="url(#paint1_linear_37_83)" fill-opacity="0.8" stroke="black"/>
</g>
<defs>
<linearGradient id="paint0_linear_37_83" x1="38.0276" y1="17.7969" x2="54.2689" y2="16.0786" gradientUnits="userSpaceOnUse">
<stop stop-color="#DC9DFA"/>
<stop offset="1" stop-color="#5BAAEC"/>
</linearGradient>
<linearGradient id="paint1_linear_37_83" x1="6.02929" y1="17.7969" x2="22.2706" y2="16.0786" gradientUnits="userSpaceOnUse">
<stop stop-color="#DC9DFA"/>
<stop offset="1" stop-color="#5BAAEC"/>
</linearGradient>
</defs>
</svg>
