<svg width="63" height="63" viewBox="0 0 63 63" fill="none" xmlns="http://www.w3.org/2000/svg">
<g clip-path="url(#clip0_47_104)">
<path d="M31.5 5.25C45.9979 5.25 57.75 17.0021 57.75 31.5C57.75 45.9979 45.9979 57.75 31.5 57.75C17.0021 57.75 5.25 45.9979 5.25 31.5C5.25 17.0021 17.0021 5.25 31.5 5.25ZM31.5 10.5C25.9305 10.5 20.589 12.7125 16.6508 16.6508C12.7125 20.589 10.5 25.9305 10.5 31.5C10.5 37.0695 12.7125 42.411 16.6508 46.3492C20.589 50.2875 25.9305 52.5 31.5 52.5C37.0695 52.5 42.411 50.2875 46.3492 46.3492C50.2875 42.411 52.5 37.0695 52.5 31.5C52.5 25.9305 50.2875 20.589 46.3492 16.6508C42.411 12.7125 37.0695 10.5 31.5 10.5ZM19.6875 27.5625C20.7318 27.5625 21.7333 27.9773 22.4717 28.7158C23.2102 29.4542 23.625 30.4557 23.625 31.5C23.625 32.5443 23.2102 33.5458 22.4717 34.2842C21.7333 35.0227 20.7318 35.4375 19.6875 35.4375C18.6432 35.4375 17.6417 35.0227 16.9033 34.2842C16.1648 33.5458 15.75 32.5443 15.75 31.5C15.75 30.4557 16.1648 29.4542 16.9033 28.7158C17.6417 27.9773 18.6432 27.5625 19.6875 27.5625ZM31.5 27.5625C32.5443 27.5625 33.5458 27.9773 34.2842 28.7158C35.0227 29.4542 35.4375 30.4557 35.4375 31.5C35.4375 32.5443 35.0227 33.5458 34.2842 34.2842C33.5458 35.0227 32.5443 35.4375 31.5 35.4375C30.4557 35.4375 29.4542 35.0227 28.7158 34.2842C27.9773 33.5458 27.5625 32.5443 27.5625 31.5C27.5625 30.4557 27.9773 29.4542 28.7158 28.7158C29.4542 27.9773 30.4557 27.5625 31.5 27.5625ZM43.3125 27.5625C44.3568 27.5625 45.3583 27.9773 46.0967 28.7158C46.8352 29.4542 47.25 30.4557 47.25 31.5C47.25 32.5443 46.8352 33.5458 46.0967 34.2842C45.3583 35.0227 44.3568 35.4375 43.3125 35.4375C42.2682 35.4375 41.2667 35.0227 40.5283 34.2842C39.7898 33.5458 39.375 32.5443 39.375 31.5C39.375 30.4557 39.7898 29.4542 40.5283 28.7158C41.2667 27.9773 42.2682 27.5625 43.3125 27.5625Z" fill="#C1C1C1"/>
</g>
<defs>
<clipPath id="clip0_47_104">
<rect width="63" height="63" fill="white"/>
</clipPath>
</defs>
</svg>
