<svg width="60" height="57" viewBox="0 0 60 57" fill="none" xmlns="http://www.w3.org/2000/svg">
<path d="M51 44.8818C51 47.7318 47.652 49.4276 45.159 47.8401L19.662 31.5752C19.1529 31.2505 18.7353 30.8122 18.4459 30.2986C18.1565 29.785 18.0041 29.2118 18.002 28.6293C17.9999 28.0467 18.1483 27.4726 18.434 26.9572C18.7197 26.4417 19.1342 26.0007 19.641 25.6728L45.141 9.16277C45.7046 8.79862 46.3619 8.58728 47.0424 8.55144C47.7229 8.5156 48.4009 8.65662 49.0033 8.95935C49.6058 9.26208 50.11 9.71507 50.4618 10.2696C50.8136 10.8242 50.9997 11.4593 51 12.1068V44.8818ZM9 47.025C9 47.403 9.15803 47.7654 9.43934 48.0326C9.72064 48.2999 10.1022 48.45 10.5 48.45C10.8978 48.45 11.2794 48.2999 11.5607 48.0326C11.842 47.7654 12 47.403 12 47.025V9.97502C12 9.59708 11.842 9.23463 11.5607 8.96739C11.2794 8.70015 10.8978 8.55002 10.5 8.55002C10.1022 8.55002 9.72064 8.70015 9.43934 8.96739C9.15803 9.23463 9 9.59708 9 9.97502V47.025Z" fill="#97D8EC"/>
</svg>
