<svg width="64" height="64" viewBox="0 0 64 64" fill="none" xmlns="http://www.w3.org/2000/svg">
<rect width="64" height="64" rx="32" fill="black"/>
<path d="M35.0572 28.3849C35.0574 28.7824 35.2155 29.1635 35.4965 29.4446C35.7776 29.7257 36.1588 29.8837 36.5563 29.884L44.5572 29.8861C44.9551 29.8861 45.3368 29.728 45.6182 29.4466C45.8996 29.1652 46.0577 28.7835 46.0577 28.3856C46.0577 27.9876 45.8996 27.606 45.6182 27.3246C45.3368 27.0432 44.9551 26.8851 44.5572 26.8851L40.1781 26.8844L48.3345 18.7279C48.6158 18.4466 48.7739 18.0651 48.7739 17.6673C48.7739 17.2694 48.6158 16.8879 48.3345 16.6066C48.0532 16.3253 47.6717 16.1673 47.2739 16.1673C46.8761 16.1673 46.4945 16.3253 46.2132 16.6066L38.0567 24.7631L38.0567 20.3847C38.0567 20.1876 38.0179 19.9925 37.9425 19.8105C37.8671 19.6284 37.7566 19.463 37.6173 19.3237C37.4779 19.1843 37.3125 19.0738 37.1305 18.9984C36.9484 18.923 36.7533 18.8842 36.5563 18.8842C36.3592 18.8842 36.1641 18.923 35.9821 18.9984C35.8 19.0738 35.6346 19.1843 35.4953 19.3237C35.3559 19.463 35.2454 19.6284 35.17 19.8105C35.0946 19.9925 35.0558 20.1876 35.0558 20.3847L35.0572 28.3849Z" fill="#97D8EC"/>
<path d="M29.884 36.5562C29.8837 36.1587 29.7257 35.7776 29.4446 35.4965C29.1635 35.2154 28.7824 35.0574 28.3849 35.0572L20.384 35.0551C19.986 35.0551 19.6044 35.2131 19.323 35.4945C19.0416 35.7759 18.8835 36.1576 18.8835 36.5555C18.8835 36.9535 19.0416 37.3351 19.323 37.6165C19.6044 37.8979 19.986 38.056 20.384 38.056L24.7631 38.0567L16.6066 46.2132C16.3253 46.4945 16.1673 46.876 16.1673 47.2739C16.1673 47.6717 16.3253 48.0532 16.6066 48.3345C16.8879 48.6158 17.2695 48.7739 17.6673 48.7739C18.0651 48.7739 18.4466 48.6158 18.7279 48.3345L26.8844 40.178L26.8844 44.5565C26.8844 44.7535 26.9232 44.9486 26.9986 45.1307C27.074 45.3127 27.1846 45.4781 27.3239 45.6175C27.4632 45.7568 27.6286 45.8673 27.8107 45.9427C27.9927 46.0181 28.1878 46.0569 28.3849 46.0569C28.5819 46.0569 28.7771 46.0181 28.9591 45.9427C29.1412 45.8673 29.3066 45.7568 29.4459 45.6175C29.5852 45.4781 29.6958 45.3127 29.7712 45.1307C29.8466 44.9486 29.8854 44.7535 29.8854 44.5565L29.884 36.5562Z" fill="#97D8EC"/>
</svg>
