<svg width="55" height="52" viewBox="0 0 55 52" fill="none" xmlns="http://www.w3.org/2000/svg">
<path d="M25.565 46.0714L25.5607 46.0674C18.4219 39.3967 12.7339 34.0669 8.79564 29.1019C4.89285 24.1816 2.99995 19.9703 2.99995 15.5858C2.99995 8.4044 8.39252 3 15.125 3C18.9691 3 22.7343 4.86006 25.1948 7.81423L27.5 10.5819L29.8051 7.81423C32.2656 4.86006 36.0308 3 39.875 3C46.6074 3 52 8.4044 52 15.5858C52 19.9703 50.1071 24.1816 46.2043 29.1019C42.266 34.0669 36.578 39.3967 29.4392 46.0674L29.4349 46.0714L27.5 47.8866L25.565 46.0714Z" stroke="#FFA2A2" stroke-width="6"/>
</svg>
