<svg width="54" height="44" viewBox="0 0 54 44" fill="none" xmlns="http://www.w3.org/2000/svg">
<path d="M4.38461 26.5421C3.47859 25.0979 3 23.4454 3 21.7612C3 20.077 3.47859 18.4245 4.38461 16.9802C4.66322 16.5356 5.03603 16.1517 5.47908 15.853C5.92213 15.5544 6.42562 15.3477 6.95719 15.2462L11.3433 14.4065C11.6048 14.3569 11.8408 14.2232 12.0117 14.0275L17.3692 7.87664C20.4315 4.35905 21.9652 2.60274 23.3305 3.07588C24.701 3.54902 24.701 5.83793 24.701 10.4157V33.1116C24.701 37.6869 24.701 39.9734 23.3331 40.449C21.9678 40.9196 20.4341 39.1633 17.3718 35.6482L12.0065 29.4949C11.8362 29.2997 11.6013 29.166 11.3407 29.1159L6.9546 28.2762C6.42302 28.1747 5.91954 27.968 5.47649 27.6693C5.03344 27.3707 4.66322 26.9867 4.38461 26.5421Z" stroke="#C1C1C1" stroke-width="5"/>
<path d="M51.5 28.0002L38 16M51.5 16L38 28.0002" stroke="#C1C1C1" stroke-width="4" stroke-linecap="round"/>
</svg>
