<svg width="68" height="68" viewBox="0 0 68 68" fill="none" xmlns="http://www.w3.org/2000/svg">
<g clip-path="url(#clip0_37_52)">
<path d="M9.96195 58.038C6.71461 54.9016 4.12441 51.1499 2.3425 47.0018C0.560599 42.8536 -0.377333 38.3921 -0.416563 33.8776C-0.455793 29.3631 0.404465 24.886 2.11402 20.7076C3.82357 16.5291 6.34817 12.7329 9.54052 9.54057C12.7329 6.34822 16.529 3.82361 20.7075 2.11406C24.886 0.404513 29.3631 -0.455745 33.8776 -0.416515C38.3921 -0.377286 42.8536 0.560646 47.0017 2.34255C51.1498 4.12446 54.9016 6.71465 58.038 9.962C64.2313 16.3745 67.6583 24.963 67.5809 33.8776C67.5034 42.7923 63.9277 51.32 57.6238 57.6238C51.3199 63.9277 42.7923 67.5035 33.8776 67.5809C24.9629 67.6584 16.3744 64.2314 9.96195 58.038ZM23.8 20.4V47.6H30.6V20.4H23.8ZM37.4 20.4V47.6H44.2V20.4H37.4Z" fill="#DC9DFA"/>
</g>
<defs>
<clipPath id="clip0_37_52">
<rect width="68" height="68" fill="white"/>
</clipPath>
</defs>
</svg>
