<svg width="46" height="50" viewBox="0 0 46 50" fill="none" xmlns="http://www.w3.org/2000/svg">
<path d="M21.8235 28.4737V19.2105M43 12.2632L38.2941 7.63158M17.1176 3H26.5294M21.8235 47C16.8312 47 12.0434 45.0481 8.51328 41.5738C4.98319 38.0994 3 33.3872 3 28.4737C3 23.5602 4.98319 18.848 8.51328 15.3736C12.0434 11.8992 16.8312 9.94737 21.8235 9.94737C26.8158 9.94737 31.6037 11.8992 35.1338 15.3736C38.6639 18.848 40.6471 23.5602 40.6471 28.4737C40.6471 33.3872 38.6639 38.0994 35.1338 41.5738C31.6037 45.0481 26.8158 47 21.8235 47Z" stroke="#CBA3FA" stroke-width="5" stroke-linecap="round" stroke-linejoin="round"/>
</svg>
